<svg width="12" height="12" viewBox="0 0 12 12" fill="currentcolor" xmlns="http://www.w3.org/2000/svg">
    <path fill-rule="evenodd" clip-rule="evenodd"
        d="M2.25 0.75C2.25 0.3375 1.9125 0 1.5 0C1.0875 0 0.75 0.3375 0.75 0.75V3H2.25V0.75ZM2.25 3.75H0.75C0.3375 3.75 0 4.0875 0 4.5V6C0 6.4125 0.3375 6.75 0.75 6.75H2.25C2.6625 6.75 3 6.4125 3 6V4.5C3 4.0875 2.6625 3.75 2.25 3.75ZM11.25 0.75C11.25 0.3375 10.9125 0 10.5 0C10.0875 0 9.75 0.3375 9.75 0.75V2.25H11.25V0.75ZM6.75 0.75C6.75 0.3375 6.4125 0 6 0C5.5875 0 5.25 0.3375 5.25 0.75V5.25H6.75V0.75ZM0.75 11.25C0.75 11.6625 1.0875 12 1.5 12C1.9125 12 2.25 11.6625 2.25 11.25V7.5H0.75V11.25ZM11.25 3H9.75C9.3375 3 9 3.3375 9 3.75V5.25C9 5.6625 9.3375 6 9.75 6H11.25C11.6625 6 12 5.6625 12 5.25V3.75C12 3.3375 11.6625 3 11.25 3ZM9.75 11.25C9.75 11.6625 10.0875 12 10.5 12C10.9125 12 11.25 11.6625 11.25 11.25V6.75H9.75V11.25ZM6.75 6H5.25C4.8375 6 4.5 6.3375 4.5 6.75V8.25C4.5 8.6625 4.8375 9 5.25 9H6.75C7.1625 9 7.5 8.6625 7.5 8.25V6.75C7.5 6.3375 7.1625 6 6.75 6ZM5.25 11.25C5.25 11.6625 5.5875 12 6 12C6.4125 12 6.75 11.6625 6.75 11.25V9.75H5.25V11.25Z" />
</svg>