<?xml version="1.0" standalone="no"?>
<!DOCTYPE svg PUBLIC "-//W3C//DTD SVG 20010904//EN"
 "http://www.w3.org/TR/2001/REC-SVG-20010904/DTD/svg10.dtd">
<svg version="1.0" xmlns="http://www.w3.org/2000/svg"
 width="700.000000pt" height="700.000000pt" viewBox="0 0 700.000000 700.000000"
 preserveAspectRatio="xMidYMid meet">
<metadata>
Created by potrace 1.14, written by Peter Selinger 2001-2017
</metadata>
<g transform="translate(0.000000,700.000000) scale(0.100000,-0.100000)"
fill="#000000" stroke="none">
<path d="M1229 6996 c-2 -2 -33 -6 -69 -9 -309 -28 -588 -156 -801 -368 -168
-168 -262 -343 -326 -606 l-26 -108 -4 -580 c-3 -651 -3 -651 66 -791 84 -168
258 -296 441 -324 54 -8 675 -10 2229 -8 l2154 3 -464 310 c-255 171 -470 311
-476 313 -7 2 -13 7 -13 12 0 5 -9 12 -20 15 -11 3 -26 12 -32 18 -7 7 -193
131 -413 277 -220 146 -413 275 -429 285 -16 11 -36 25 -44 30 -9 6 -22 16
-30 23 -7 6 -17 12 -22 12 -5 0 -15 6 -22 13 -7 7 -38 28 -68 47 l-55 35 335
2 c184 2 1069 4 1965 5 l1630 3 57 27 c78 36 133 90 171 167 l32 66 3 407 c3
338 0 419 -12 467 -26 103 -97 185 -203 234 l-48 22 -2751 2 c-1513 2 -2753 1
-2755 -1z"/>
<path d="M2110 2796 c0 -2 37 -28 83 -57 45 -30 84 -56 87 -59 3 -3 50 -34
105 -70 55 -36 102 -68 105 -71 3 -3 10 -8 15 -10 6 -2 77 -49 158 -104 81
-55 156 -105 165 -110 9 -6 171 -114 360 -240 188 -127 350 -235 360 -240 16
-10 463 -307 527 -351 17 -12 50 -34 74 -50 l44 -29 -1964 -5 -1964 -5 -56
-26 c-79 -37 -133 -90 -171 -167 l-33 -67 0 -435 0 -435 33 -67 c38 -77 92
-130 171 -167 l56 -26 2760 0 c1518 0 2789 3 2825 8 322 38 581 158 791 368
181 181 291 400 338 674 17 98 19 167 20 655 0 580 -2 608 -49 720 -68 159
-206 284 -387 348 -44 15 -210 17 -2250 19 -1212 2 -2203 2 -2203 -1z"/>
</g>
</svg>
