<svg width="12" height="12" viewBox="0 0 12 12" fill="currentcolor" xmlns="http://www.w3.org/2000/svg">
    <path fill-rule="evenodd" clip-rule="evenodd"
        d="M1.5 3.7425H8.6775L7.71 4.71C7.575 4.8525 7.4925 5.04 7.4925 5.2425C7.4925 5.655 7.83 5.9925 8.2425 5.9925C8.4525 5.9925 8.64 5.91 8.775 5.775L11.0175 3.525C11.1525 3.39 11.235 3.2025 11.235 2.9925C11.235 2.7825 11.1525 2.595 11.0175 2.46L8.775 0.21C8.6325 0.0825 8.445 0 8.2425 0C7.83 0 7.4925 0.3375 7.4925 0.75C7.4925 0.96 7.575 1.1475 7.71 1.2825L8.6775 2.25H1.5C1.0875 2.25 0.75 2.5875 0.75 3C0.7575 3.4125 1.0875 3.7425 1.5 3.7425ZM10.5 8.2575H3.3225L4.29 7.29C4.425 7.1475 4.5075 6.96 4.5075 6.7575C4.5075 6.345 4.17 6.0075 3.7575 6.0075C3.5475 6.0075 3.36 6.09 3.225 6.225L0.9825 8.475C0.8475 8.61 0.765 8.7975 0.765 9C0.765 9.21 0.8475 9.3975 0.9825 9.5325L3.225 11.7825C3.3675 11.9175 3.555 12 3.7575 12C4.17 12 4.5075 11.6625 4.5075 11.25C4.5075 11.04 4.425 10.8525 4.29 10.7175L3.3225 9.75H10.5C10.9125 9.75 11.25 9.4125 11.25 9C11.25 8.5875 10.9125 8.2575 10.5 8.2575Z" />
</svg>