<svg width="71" height="22" viewBox="0 0 71 22" fill="none" xmlns="http://www.w3.org/2000/svg">
    <path
        d="M0.935181 15.3217C1.05823 19.0405 4.18909 21.2827 8.89221 21.2827C13.8278 21.2827 16.8492 18.8491 16.8492 14.9936C16.8492 11.9995 15.0309 10.3178 10.861 9.48383L8.76917 9.06C6.44495 8.59515 5.48792 7.8432 5.48792 6.6264C5.48792 5.17719 6.8551 4.22015 8.89221 4.22015C10.9703 4.22015 12.4332 5.23187 12.5699 6.91351H16.4664C16.3981 3.29047 13.4996 0.884216 8.89221 0.884216C4.50354 0.884216 1.35901 3.27679 1.35901 6.88617C1.35901 9.82562 3.28674 11.7123 7.22424 12.4916L9.30237 12.9018C11.777 13.4077 12.7067 14.1459 12.7067 15.4448C12.7067 16.894 11.2028 17.9604 9.00159 17.9604C6.7594 17.9604 5.09143 16.976 4.83167 15.3217H0.935181ZM22.2644 21.187C24.0964 21.187 25.9148 20.2709 26.7351 18.7123H26.8171V20.9545H30.6726V10.8784C30.6726 7.92523 28.2253 5.98383 24.4656 5.98383C20.5828 5.98383 18.1628 7.9389 18.0124 10.7827H21.6628C21.8542 9.70258 22.7976 8.96429 24.2878 8.96429C25.7917 8.96429 26.7488 9.75726 26.7488 11.1245V12.0952L23.0574 12.3139C19.407 12.5327 17.3562 14.0776 17.3562 16.7436C17.3562 19.3823 19.4753 21.187 22.2644 21.187ZM23.5769 18.3022C22.2234 18.3022 21.321 17.6186 21.321 16.5248C21.321 15.4858 22.1687 14.8159 23.6589 14.7065L26.7488 14.5151V15.5815C26.7488 17.1674 25.3132 18.3022 23.5769 18.3022ZM40.8456 21.187C44.537 21.187 46.7928 18.3432 46.7928 13.6264C46.7928 8.89594 44.5233 6.06586 40.8319 6.06586C38.7401 6.06586 37.1131 7.10492 36.3065 8.84125H36.2245V1.22601H32.2323V20.9545H36.1698V18.4389H36.2518C37.0585 20.1479 38.6991 21.187 40.8456 21.187ZM39.4647 9.26508C41.4471 9.26508 42.7049 10.9604 42.7049 13.6264C42.7049 16.3061 41.4608 17.9741 39.4647 17.9741C37.5233 17.9741 36.2108 16.2787 36.2108 13.6264C36.2108 11.0014 37.537 9.26508 39.4647 9.26508ZM57.458 16.4702C57.0889 17.5912 55.9678 18.3159 54.5049 18.3159C52.4678 18.3159 51.1416 16.8803 51.1416 14.7885V14.5424H61.2451V13.3256C61.2451 8.86859 58.5517 5.98383 54.2861 5.98383C49.9521 5.98383 47.2178 9.01898 47.2178 13.6948C47.2178 18.3842 49.9248 21.269 54.4365 21.269C58.0596 21.269 60.6846 19.3412 61.1221 16.4702H57.458ZM54.3271 8.93695C56.1045 8.93695 57.3213 10.2221 57.4033 12.0952H51.1826C51.3193 10.2631 52.5771 8.93695 54.3271 8.93695ZM62.1896 20.9545H66.1817V12.7651C66.1817 10.7006 67.3302 9.4975 69.2989 9.4975C69.8731 9.4975 70.42 9.5932 70.7481 9.72992V6.21625C70.4747 6.13422 70.0782 6.06586 69.6134 6.06586C67.8907 6.06586 66.6466 7.07758 66.1271 8.93695H66.045V6.29828H62.1896V20.9545Z"
        fill="#EFEFF7" />
</svg>